HIERARCHY
ROOT Hips
{
  OFFSET 14.1639 96.1 -11.6063
  CHANNELS 6 Xposition Yposition Zposition Zrotation Xrotation Yrotation
  JOINT Chest
  {
    OFFSET 0 10.5691 -1.07958
    CHANNELS 6 Xposition Yposition Zposition Zrotation Xrotation Yrotation
    JOINT Chest2
    {
      OFFSET 0 11.6675 1.08235
      CHANNELS 6 Xposition Yposition Zposition Zrotation Xrotation Yrotation
      JOINT Chest3
      {
        OFFSET 0 10.5876 0
        CHANNELS 6 Xposition Yposition Zposition Zrotation Xrotation Yrotation
        JOINT Chest4
        {
          OFFSET 0 10.5876 0
          CHANNELS 6 Xposition Yposition Zposition Zrotation Xrotation Yrotation
          JOINT Neck
          {
            OFFSET 0 14.88 0
            CHANNELS 6 Xposition Yposition Zposition Zrotation Xrotation Yrotation
            JOINT Head
            {
              OFFSET 0 9.61472 2.16553
              CHANNELS 6 Xposition Yposition Zposition Zrotation Xrotation Yrotation
              End Site
              {
                OFFSET 0 0 0
              }
            }
          }
          JOINT RightCollar
          {
            OFFSET -3.23953 8.30385 0
            CHANNELS 6 Xposition Yposition Zposition Zrotation Xrotation Yrotation
            JOINT RightShoulder
            {
              OFFSET -15.1725 0 0
              CHANNELS 6 Xposition Yposition Zposition Zrotation Xrotation Yrotation
              JOINT RightElbow
              {
                OFFSET -32.4113 0 0
                CHANNELS 6 Xposition Yposition Zposition Zrotation Xrotation Yrotation
                JOINT RightWrist
                {
                  OFFSET -26.4919 0 1.0813
                  CHANNELS 6 Xposition Yposition Zposition Zrotation Xrotation Yrotation
                  End Site
                  {
                    OFFSET 0 0 0
                  }
                }
              }
            }
          }
          JOINT LeftCollar
          {
            OFFSET 3.23953 8.30385 0
            CHANNELS 6 Xposition Yposition Zposition Zrotation Xrotation Yrotation
            JOINT LeftShoulder
            {
              OFFSET 15.1725 0 0
              CHANNELS 6 Xposition Yposition Zposition Zrotation Xrotation Yrotation
              JOINT LeftElbow
              {
                OFFSET 32.4113 0 0
                CHANNELS 6 Xposition Yposition Zposition Zrotation Xrotation Yrotation
                JOINT LeftWrist
                {
                  OFFSET 26.4919 0 1.08131
                  CHANNELS 6 Xposition Yposition Zposition Zrotation Xrotation Yrotation
                  End Site
                  {
                    OFFSET 0 0 0
                  }
                }
              }
            }
          }
        }
      }
    }
  }
  JOINT RightHip
  {
    OFFSET -8.63674 0.00547028 0
    CHANNELS 6 Xposition Yposition Zposition Zrotation Xrotation Yrotation
    JOINT RightKnee
    {
      OFFSET -2.94969e-005 -44.4932 -2.13962
      CHANNELS 6 Xposition Yposition Zposition Zrotation Xrotation Yrotation
      JOINT RightAnkle
      {
        OFFSET 0 -43.4407 -3.54051
        CHANNELS 6 Xposition Yposition Zposition Zrotation Xrotation Yrotation
        JOINT RightToe
        {
          OFFSET 0 -8.39271 19.1252
          CHANNELS 6 Xposition Yposition Zposition Zrotation Xrotation Yrotation
          End Site
          {
            OFFSET 0 0 0
          }
        }
      }
    }
  }
  JOINT LeftHip
  {
    OFFSET 8.63674 0.00547028 0
    CHANNELS 6 Xposition Yposition Zposition Zrotation Xrotation Yrotation
    JOINT LeftKnee
    {
      OFFSET 1.11286e-005 -44.4932 -2.13963
      CHANNELS 6 Xposition Yposition Zposition Zrotation Xrotation Yrotation
      JOINT LeftAnkle
      {
        OFFSET 0 -43.4408 -3.54051
        CHANNELS 6 Xposition Yposition Zposition Zrotation Xrotation Yrotation
        JOINT LeftToe
        {
          OFFSET 0 -8.39271 19.1252
          CHANNELS 6 Xposition Yposition Zposition Zrotation Xrotation Yrotation
          End Site
          {
            OFFSET 0 0 0
          }
        }
      }
    }
  }
}
MOTION
Frames:	9
Frame Time:	0.0333333
-101.739 83.1773 -139.587 -5.399 13.5319 130.315 0 10.5691 -1.07958 -1.15623 2.89676 -0.118905 -2.84217e-014 11.6675 1.08235 -2.31077 5.79552 -0.179542 0 10.5876 -3.20758e-007 -2.31076 5.79553 -0.179541 0 10.5876 -3.20758e-007 -2.31077 5.79553 -0.179528 1.07138e-006 14.88 -0.000512282 -9.55164 -4.49568 -6.26757 -5.68434e-014 9.61472 2.16553 14.5632 -10.1247 -10.6923 -3.23953 8.30385 1.42109e-014 -4.41391e-032 -7.95139e-016 -3.18055e-015 -15.1725 -4.76837e-006 8.49733e-008 63.1198 26.0802 0.0593719 -32.4113 -8.97005e-006 8.16138e-006 -8.40359 7.60751 64.9178 -26.4919 3.90148e-006 1.0813 -20.9891 -3.10161 14.9101 3.23953 8.30385 0 -4.41391e-032 -7.95139e-016 -3.18055e-015 15.1725 -4.76837e-006 -1.82237e-006 -52.2267 14.306 -15.1505 32.4113 1.37714e-006 -6.07927e-006 18.6442 -2.00176 -66.7604 26.4919 3.73804e-007 1.08131 -8.95271 3.01337 -35.4406 -8.63674 0.00547028 9.53674e-007 -14.087 -39.758 -24.3291 -2.94969e-005 -44.4932 -2.13962 12.6355 76.2283 -11.3559 -1.37399e-006 -43.4407 -3.54051 2.35908 1.46038 2.57946 1.51341e-007 -8.39271 19.1252 -18.3201 16.1254 16.2579 8.63674 0.00547028 -1.90735e-006 11.9438 -6.69169 6.88597 1.11286e-005 -44.4932 -2.13963 -6.98689 36.6515 -5.13821 -7.31597e-007 -43.4408 -3.54051 8.41636 -19.4333 -7.87985 3.47266e-006 -8.39271 19.1252 12.2594 -14.4927 10.4645 
-99.3359 83.5861 -143.384 -6.08517 12.1499 128.631 0 10.5691 -1.07958 -1.13963 2.67592 -0.725261 -2.84217e-014 11.6675 1.08235 -2.24881 5.36551 -1.39927 0 10.5876 -3.20758e-007 -2.24881 5.36551 -1.39926 0 10.5876 -3.20758e-007 -2.24881 5.36552 -1.39927 1.07138e-006 14.88 -0.000511176 -10.0926 -3.11379 -5.73245 -8.52651e-014 9.61472 2.16553 14.4852 -10.9675 -10.3454 -3.23953 8.30385 -2.84217e-014 -1.59028e-015 -1.59028e-015 3.18055e-015 -15.1725 -4.76837e-006 8.49733e-008 62.9407 27.7346 -6.06215 -32.4113 -8.97005e-006 8.16138e-006 -10.6853 6.48333 66.9951 -26.4919 3.90148e-006 1.0813 -20.1286 -3.15155 15.8872 3.23953 8.30385 0 -1.59028e-015 -1.59028e-015 3.18055e-015 15.1725 -4.76837e-006 -1.82237e-006 -52.2924 9.74558 -20.6682 32.4113 1.37714e-006 -6.07927e-006 19.2286 -2.22615 -68.3775 26.4919 3.73804e-007 1.08131 -7.54622 2.59714 -36.1279 -8.63674 0.00547028 9.53674e-007 -12.6703 -41.3605 -27.3692 -2.94969e-005 -44.4932 -2.13962 18.5018 66.0398 -18.8374 -1.37399e-006 -43.4407 -3.54051 7.16031 1.96218 7.67949 1.51341e-007 -8.39271 19.1252 11.9248 -20.529 -2.75838 8.63674 0.00547028 -1.90735e-006 9.67745 -3.62667 5.25361 1.11286e-005 -44.4932 -2.13963 -5.99825 33.7428 -3.95146 -7.31597e-007 -43.4408 -3.54051 12.4897 -18.5009 -3.88643 3.47266e-006 -8.39271 19.1252 15.6247 -17.9525 11.4712 
-96.2195 84.3111 -147.288 -6.93744 10.2266 125.199 2.84217e-014 10.5691 -1.07958 -1.13637 2.28004 -1.0015 -5.68434e-014 11.6675 1.08235 -2.23535 4.57925 -1.95973 -2.84217e-014 10.5876 -3.20758e-007 -2.23535 4.57925 -1.95974 0 10.5876 -3.20758e-007 -2.23535 4.57925 -1.95972 1.07138e-006 14.88 -0.000510065 -9.92978 -1.73962 -4.99347 -5.68434e-014 9.61472 2.16553 14.7646 -10.9662 -9.74381 -3.23953 8.30385 -1.42109e-014 1.59028e-015 6.75868e-015 -3.18055e-015 -15.1725 -4.76837e-006 8.49733e-008 63.8247 27.2863 -11.9201 -32.4113 -8.97005e-006 8.16138e-006 -11.1642 5.43019 67.9861 -26.4919 3.90148e-006 1.0813 -21.8352 -3.23335 14.9047 3.23953 8.30385 1.42109e-014 1.59028e-015 6.75868e-015 -3.18055e-015 15.1725 -4.76837e-006 -1.82237e-006 -52.2142 7.65737 -24.493 32.4113 1.37714e-006 -6.07927e-006 19.8972 -3.36703 -70.4786 26.4919 3.73804e-007 1.08131 -4.99741 1.66899 -35.2562 -8.63674 0.00547028 9.53674e-007 -8.08048 -43.1548 -25.2123 -2.94969e-005 -44.4932 -2.13962 19.0137 55.3887 -20.5057 -1.37399e-006 -43.4407 -3.54051 8.07015 1.2211 9.50673 1.51341e-007 -8.39271 19.1252 10.286 -15.2692 -4.10405 8.63674 0.00547028 -1.90735e-006 7.96167 0.206152 5.28126 1.11286e-005 -44.4932 -2.13963 -4.41879 29.4967 -1.63456 -7.31597e-007 -43.4408 -3.54051 10.8893 -15.9293 -3.68272 3.47266e-006 -8.39271 19.1252 19.0448 -21.0098 13.6664 
-92.4383 85.0826 -151.408 -7.56361 9.37386 121.554 0 10.5691 -1.07958 -1.19303 1.99795 -1.28172 -5.68434e-014 11.6675 1.08235 -2.34307 4.02176 -2.52388 0 10.5876 -3.20758e-007 -2.34307 4.02176 -2.52389 0 10.5876 -3.20758e-007 -2.34308 4.02176 -2.52385 1.07138e-006 14.88 -0.000508947 -9.94943 -1.49492 -3.92094 -5.68434e-014 9.61472 2.16553 14.8469 -11.2424 -8.68695 -3.23953 8.30385 -7.10543e-015 2.09661e-031 -3.77691e-015 3.18055e-015 -15.1725 -4.76837e-006 8.49733e-008 64.1847 26.4964 -15.8312 -32.4113 -8.97005e-006 8.16138e-006 -9.35691 3.65588 68.6638 -26.4919 3.90148e-006 1.0813 -21.461 -2.65513 12.2183 3.23953 8.30385 1.42109e-014 2.09661e-031 -3.77691e-015 3.18055e-015 15.1725 -4.76837e-006 -1.82237e-006 -52.4526 6.34419 -25.7449 32.4113 1.37714e-006 -6.07927e-006 21.1822 -4.61201 -72.2887 26.4919 3.73804e-007 1.08131 -3.22759 1.09177 -35.6199 -8.63674 0.00547028 9.53674e-007 -2.89307 -43.2249 -21.2632 -2.94969e-005 -44.4932 -2.13962 15.7883 46.26 -18.727 -1.37399e-006 -43.4407 -3.54051 5.39423 -0.655438 7.91327 1.51341e-007 -8.39271 19.1252 9.23536 -14.6364 -2.53301 8.63674 0.00547028 -1.90735e-006 6.04685 4.69018 6.01535 1.11286e-005 -44.4932 -2.13963 -3.30256 25.3694 -1.20432 -7.31597e-007 -43.4408 -3.54051 4.69221 -9.10914 -4.39744 3.47266e-006 -8.39271 19.1252 25.6471 -26.1448 18.1772 
-88.0636 85.6933 -155.656 -9.22911 9.56476 118.895 0 10.5691 -1.07958 -1.28754 1.67192 -1.62573 -8.52651e-014 11.6675 1.08235 -2.52875 3.37928 -3.21561 -2.84217e-014 10.5876 -3.20758e-007 -2.52875 3.37928 -3.21561 0 10.5876 -3.20758e-007 -2.52875 3.37928 -3.21561 1.07138e-006 14.88 -0.000507825 -11.7981 -2.49858 -3.06614 -5.68434e-014 9.61472 2.16553 15.1873 -10.5323 -8.39698 -3.23953 8.30385 -7.10543e-015 -0 -1.78906e-015 -0 -15.1725 -4.76837e-006 8.49733e-008 63.6638 26.0828 -17.9347 -32.4113 -8.97005e-006 8.16138e-006 -9.87547 2.60894 69.5653 -26.4919 3.90148e-006 1.0813 -21.1338 -2.5251 11.7467 3.23953 8.30385 7.10543e-015 -0 -1.78906e-015 -0 15.1725 -4.76837e-006 -1.82237e-006 -54.0537 6.93126 -25.5035 32.4113 1.37714e-006 -6.07927e-006 22.1338 -6.00475 -73.769 26.4919 3.73804e-007 1.08131 -3.85455 1.30491 -35.74 -8.63674 0.00547028 9.53674e-007 -0.290661 -43.5908 -17.9925 -2.94969e-005 -44.4932 -2.13962 11.6463 41.1915 -16.1114 -1.37399e-006 -43.4407 -3.54051 2.25302 -1.19066 4.77343 1.51341e-007 -8.39271 19.1252 7.12253 -13.1819 0.0945344 8.63674 0.00547028 -1.90735e-006 3.9172 8.51049 7.24302 1.11286e-005 -44.4932 -2.13963 -2.99717 21.4552 -1.13488 -7.31597e-007 -43.4408 -3.54051 -3.33754 -4.15808 -9.01743 3.47266e-006 -8.39271 19.1252 25.9653 -22.9107 27.6274 
-83.0255 85.8581 -159.865 -10.3682 9.97548 117.094 0 10.5691 -1.07958 -1.30679 1.38141 -1.90784 -5.68434e-014 11.6675 1.08235 -2.56795 2.80518 -3.78525 0 10.5876 -3.20758e-007 -2.56796 2.80518 -3.78526 0 10.5876 -3.20758e-007 -2.56796 2.80518 -3.78524 1.07138e-006 14.88 -0.000506696 -13.8911 -3.10334 -2.1249 -5.68434e-014 9.61472 2.16553 15.7689 -9.79875 -8.14881 -3.23953 8.30385 0 -3.97569e-016 1.39149e-015 -1.59028e-015 -15.1725 -4.76837e-006 8.49733e-008 63.7894 25.8064 -18.8905 -32.4113 -8.97005e-006 8.16138e-006 -10.5953 2.15528 69.949 -26.4919 3.90148e-006 1.0813 -20.4765 -2.49615 12.0267 3.23953 8.30385 0 -3.97569e-016 1.39149e-015 -1.59028e-015 15.1725 -4.76837e-006 -1.82237e-006 -55.4623 10.7634 -24.2308 32.4113 1.37714e-006 -6.07927e-006 23.2056 -7.69571 -74.5722 26.4919 3.73804e-007 1.08131 -5.89094 1.97667 -35.3355 -8.63674 0.00547028 9.53674e-007 -0.209853 -42.6815 -15.5221 -2.94969e-005 -44.4932 -2.13962 11.6317 40.2728 -16.0793 -1.37399e-006 -43.4407 -3.54051 0.209245 0.106747 1.47616 1.51341e-007 -8.39271 19.1252 2.96586 -3.73056 -1.52097 8.63674 0.00547028 -1.90735e-006 3.28101 12.6249 8.5375 1.11286e-005 -44.4932 -2.13963 -3.03127 16.8775 1.58045 -7.31598e-007 -43.4408 -3.54051 -13.0006 0.964029 -13.6339 3.47266e-006 -8.39271 19.1252 19.5684 -13.7596 43.3231 
-77.8821 85.3858 -163.684 -11.162 10.3311 115.4 0 10.5691 -1.07958 -1.26288 1.05509 -1.99233 -5.68434e-014 11.6675 1.08235 -2.48911 2.1532 -3.96199 0 10.5876 -3.20758e-007 -2.48911 2.15321 -3.96197 2.84217e-014 10.5876 -3.20758e-007 -2.48911 2.15321 -3.96199 1.07138e-006 14.88 -0.000505562 -14.6528 -3.04703 -1.42073 -1.13687e-013 9.61472 2.16553 14.8862 -8.42786 -7.7129 -3.23953 8.30385 -1.42109e-014 -4.47266e-016 -2.11209e-016 1.59028e-015 -15.1725 -4.76837e-006 8.49733e-008 64.3339 24.0474 -19.0082 -32.4113 -8.97005e-006 8.16138e-006 -10.214 2.44635 69.6267 -26.4919 3.90148e-006 1.0813 -18.0716 -2.27288 12.4987 3.23953 8.30385 0 -4.47266e-016 -2.11209e-016 1.59028e-015 15.1725 -4.76837e-006 -1.82237e-006 -56.43 18.9595 -22.2469 32.4113 1.37714e-006 -6.07927e-006 25.9759 -9.21309 -73.2276 26.4919 3.73804e-007 1.08131 -3.97891 1.36035 -35.9835 -8.63674 0.00547028 9.53674e-007 -1.35678 -41.5418 -17.0546 -2.94969e-005 -44.4932 -2.13962 13.0801 45.7993 -14.8707 -1.37399e-006 -43.4407 -3.54051 -3.00531 -6.73624 2.68437 1.51341e-007 -8.39271 19.1252 -6.49427 31.9556 -10.016 8.63674 0.00547028 -1.90735e-006 3.49429 16.7545 10.1402 1.11286e-005 -44.4932 -2.13963 -1.01743 8.82502 5.99671 -7.31597e-007 -43.4408 -3.54051 -45.6972 38.2236 2.15038 3.47266e-006 -8.39271 19.1252 67.8156 -49.5793 38.7481 
-72.5998 84.7066 -167.284 -11.0158 10.9826 113.033 -2.84217e-014 10.5691 -1.07958 -1.17916 0.839912 -1.76125 -2.84217e-014 11.6675 1.08235 -2.33232 1.7156 -3.50551 0 10.5876 -3.20758e-007 -2.33232 1.7156 -3.50549 0 10.5876 -3.20758e-007 -2.33232 1.7156 -3.50552 1.07138e-006 14.8801 -0.000504422 -15.6294 -1.74742 -0.872479 -8.52651e-014 9.61472 2.16553 14.9834 -9.33271 -7.51679 -3.23953 8.30385 0 1.98785e-016 8.44835e-016 -1.59028e-015 -15.1725 -4.76837e-006 8.49733e-008 65.0236 21.5038 -18.4961 -32.4113 -8.97005e-006 8.16138e-006 -9.77188 3.43397 68.4957 -26.4919 3.90148e-006 1.0813 -16.5288 -2.18631 13.2255 3.23953 8.30385 0 1.98785e-016 8.44835e-016 -1.59028e-015 15.1725 -4.76837e-006 -1.82237e-006 -58.7443 25.8293 -19.9846 32.4113 1.37714e-006 -6.07927e-006 27.6844 -9.31997 -70.9149 26.4919 3.73804e-007 1.08131 -4.57358 1.63112 -37.48 -8.63674 0.00547028 9.53674e-007 -1.54984 -38.5681 -19.9387 -2.94969e-005 -44.4932 -2.13962 9.93074 51.0838 -9.5687 -1.37399e-006 -43.4407 -3.54051 -5.59715 -15.0333 4.90574 1.51341e-007 -8.39271 19.1252 -5.94683 32.3541 -10.9027 8.63674 0.00547028 -1.90735e-006 4.95383 13.8314 10.2577 1.11286e-005 -44.4932 -2.13963 -2.26291 16.8094 0.147018 -7.31597e-007 -43.4408 -3.54051 -51.9446 40.666 9.03643 3.47266e-006 -8.39271 19.1252 11.8181 -14.0519 13.8575 
-67.4806 83.9075 -170.45 -9.20288 10.7357 109.212 2.84217e-014 10.5691 -1.07958 -0.920597 1.05173 -1.21455 -5.68434e-014 11.6675 1.08235 -1.81857 2.12289 -2.41326 0 10.5876 -3.20758e-007 -1.81857 2.12289 -2.41327 0 10.5876 -3.20758e-007 -1.81857 2.1229 -2.41325 1.07138e-006 14.8801 -0.000503277 -16.4125 -1.36262 -1.08716 -1.13687e-013 9.61472 2.16553 15.8767 -12.3228 -7.78189 -3.23953 8.30385 7.10543e-015 -1.269e-031 -4.57205e-015 -1.59028e-015 -15.1725 -4.76837e-006 8.49733e-008 65.1078 18.0464 -14.9049 -32.4113 -8.97005e-006 8.16138e-006 -8.47093 4.0302 67.5661 -26.4919 3.90148e-006 1.0813 -15.2655 -1.9637 12.8467 3.23953 8.30385 0 -1.269e-031 -4.57205e-015 -1.59028e-015 15.1725 -4.76837e-006 -1.82237e-006 -60.8386 30.2596 -18.4105 32.4113 1.37714e-006 -6.07927e-006 27.9174 -8.93117 -69.3537 26.4919 3.73804e-007 1.08131 -5.31236 1.91138 -37.7545 -8.63674 0.00547028 9.53674e-007 0.919975 -34.6172 -20.4294 -2.94969e-005 -44.4932 -2.13962 5.06946 54.5542 -2.94305 -1.37399e-006 -43.4407 -3.54051 -9.30304 -19.6642 3.53237 1.51341e-007 -8.39271 19.1252 -5.66443 24.9822 -7.71977 8.63674 0.00547028 -1.90735e-006 7.95996 5.76905 7.00733 1.11286e-005 -44.4932 -2.13963 -4.85121 36.1622 -5.90343 -7.31597e-007 -43.4408 -3.54051 -41.693 34.3999 4.64137 3.47266e-006 -8.39271 19.1252 -3.52069 6.04761 -5.35482 
